<?xml version="1.0" standalone="no"?>
<!DOCTYPE svg PUBLIC "-//W3C//DTD SVG 20010904//EN"
 "http://www.w3.org/TR/2001/REC-SVG-20010904/DTD/svg10.dtd">
<svg version="1.0" xmlns="http://www.w3.org/2000/svg"
 width="1527.000000pt" height="455.000000pt" viewBox="0 0 1527.000000 455.000000"
 preserveAspectRatio="xMidYMid meet">

<g transform="translate(0.000000,455.000000) scale(0.100000,-0.100000)"
fill="#000000" stroke="none">
<path d="M3885 4330 c-27 -16 -63 -35 -80 -43 -16 -7 -36 -21 -44 -30 -7 -10
-19 -17 -26 -17 -7 0 -23 -9 -37 -19 -13 -11 -37 -23 -51 -27 -15 -3 -51 -19
-80 -35 -28 -15 -67 -35 -86 -44 -81 -39 -111 -64 -111 -94 0 -36 32 -51 58
-28 9 7 53 31 97 53 44 21 86 44 93 51 7 7 19 13 26 13 7 0 30 14 51 30 21 17
43 30 50 30 7 0 18 6 24 14 7 8 24 17 38 21 15 3 40 15 55 27 50 35 71 -3 47
-81 -22 -66 -22 -68 -26 -44 -7 37 -30 49 -61 31 -15 -8 -44 -21 -64 -27 -21
-7 -38 -16 -38 -21 0 -5 -17 -14 -37 -20 -21 -7 -45 -19 -54 -26 -8 -8 -30
-19 -47 -25 -18 -6 -32 -15 -32 -19 0 -5 -17 -14 -37 -20 -21 -7 -45 -18 -53
-26 -8 -7 -27 -17 -43 -23 -15 -6 -32 -22 -37 -36 -6 -15 -10 -124 -10 -244 0
-240 0 -241 -62 -261 -21 -6 -38 -16 -38 -21 0 -5 -7 -9 -15 -9 -14 0 -90 -35
-159 -72 -27 -14 -43 10 -53 81 l-8 56 -7 -70 c-5 -38 -10 -214 -13 -390 -6
-342 -9 -375 -28 -356 -9 9 -13 147 -17 529 l-5 517 -35 11 -35 12 -3 117 c-3
125 6 158 34 121 10 -14 14 -47 14 -109 0 -79 2 -88 18 -85 9 3 15 10 12 19
-2 8 -6 60 -8 117 -3 86 -6 104 -20 109 -9 4 -30 20 -46 35 -32 32 -45 28 -66
-22 l-12 -29 -31 22 c-17 12 -38 28 -45 35 -23 21 -63 14 -91 -15 -14 -16 -58
-68 -98 -116 -71 -87 -73 -90 -73 -145 0 -37 -5 -61 -16 -73 -9 -10 -20 -36
-25 -58 -15 -67 -79 -147 -133 -167 -37 -13 -45 -39 -34 -114 4 -30 6 -120 3
-200 -4 -133 -6 -146 -26 -162 -12 -10 -38 -18 -58 -18 -33 -1 -105 -23 -250
-79 -29 -11 -55 -22 -57 -23 -13 -14 -25 -199 -19 -288 9 -125 9 -140 4 -247
-2 -45 -1 -85 3 -88 11 -11 85 22 128 56 36 29 38 33 45 112 5 45 9 147 10
227 1 168 9 195 57 205 28 5 110 37 167 64 11 6 14 53 15 254 1 209 3 249 16
257 8 5 20 8 25 6 7 -2 9 -163 8 -463 -2 -393 -1 -463 12 -473 17 -14 79 -6
145 20 25 10 71 21 104 25 32 4 76 13 98 21 21 7 136 21 256 30 213 16 255 16
712 -3 63 -2 140 -5 171 -6 37 -2 62 -8 73 -20 10 -9 19 -17 20 -17 16 0 130
-25 161 -35 22 -7 75 -16 117 -20 72 -6 77 -5 88 16 11 20 11 142 -1 153 -2 3
-46 7 -96 10 -90 4 -143 20 -127 36 19 19 151 32 255 25 106 -7 134 0 105 24
-11 9 -35 9 -98 0 -91 -13 -249 -2 -270 19 -22 22 46 33 206 33 101 0 166 5
174 11 26 22 -12 28 -179 28 -130 0 -169 3 -185 15 -34 26 2 35 151 37 194 2
203 3 211 11 4 4 1 14 -7 22 -11 12 -47 15 -170 16 -85 0 -161 4 -167 8 -31
19 21 30 171 37 171 8 213 24 65 25 -124 0 -235 12 -249 26 -8 8 -5 15 12 24
17 10 70 14 188 14 117 0 165 3 168 12 8 24 -31 31 -122 22 -178 -17 -332 19
-216 51 48 13 450 -6 466 -21 12 -12 11 -58 -3 -304 -6 -99 -11 -252 -11 -341
l-1 -160 33 -31 c17 -16 47 -39 65 -49 29 -16 34 -17 42 -4 5 8 10 101 10 205
0 105 4 196 9 204 11 18 122 9 167 -12 16 -8 43 -21 59 -29 l30 -14 3 -257 c2
-218 5 -257 17 -257 24 0 26 34 23 304 -3 274 -4 275 -53 276 -11 0 -33 7 -50
16 -16 8 -52 20 -80 25 -27 5 -65 16 -84 25 -24 12 -48 14 -82 10 -40 -6 -48
-4 -53 11 -2 10 -8 112 -12 226 l-7 209 -26 10 c-14 5 -75 12 -136 15 -75 4
-115 10 -127 20 -26 23 -41 136 -29 213 14 82 14 176 1 200 -14 26 -59 37
-174 44 -55 4 -106 12 -113 18 -10 8 -13 60 -13 223 0 116 -3 267 -7 333 -7
141 -8 142 -98 92z m-1257 -647 c-15 -2 -42 -2 -60 0 -18 2 -6 4 27 4 33 0 48
-2 33 -4z m42 -79 c26 -10 -19 -23 -82 -23 -37 -1 -62 -6 -72 -17 -15 -14 -17
-13 -25 8 -5 13 -5 28 -1 33 8 10 152 9 180 -1z m-200 -118 c0 -26 -15 -43
-24 -28 -7 12 4 52 15 52 5 0 9 -11 9 -24z m-50 -66 c0 -5 -14 -10 -31 -10
-17 0 -28 4 -24 10 3 6 17 10 31 10 13 0 24 -4 24 -10z m1005 -50 c3 -5 -3
-10 -15 -10 -12 0 -18 5 -15 10 3 6 10 10 15 10 5 0 12 -4 15 -10z m-65 -38
c0 -14 -11 -21 -26 -15 -8 3 -11 9 -8 14 7 11 34 12 34 1z m-100 -52 c0 -5
-11 -10 -25 -10 -14 0 -25 5 -25 10 0 6 11 10 25 10 14 0 25 -4 25 -10z m-105
-40 c3 -5 -1 -10 -9 -10 -9 0 -16 5 -16 10 0 6 4 10 9 10 6 0 13 -4 16 -10z
m165 0 c0 -5 -4 -10 -10 -10 -5 0 -10 5 -10 10 0 6 5 10 10 10 6 0 10 -4 10
-10z m-643 -6 c-3 -3 -12 -4 -19 -1 -8 3 -5 6 6 6 11 1 17 -2 13 -5z m563 -40
c0 -2 -9 -4 -21 -4 -11 0 -18 4 -14 10 5 8 35 3 35 -6z m180 0 c0 -2 -9 -4
-21 -4 -11 0 -18 4 -14 10 5 8 35 3 35 -6z m-100 -44 c0 -5 -4 -10 -10 -10 -5
0 -10 5 -10 10 0 6 5 10 10 10 6 0 10 -4 10 -10z m85 -40 c3 -6 -4 -10 -17
-10 -18 0 -20 2 -8 10 19 12 18 12 25 0z m-178 -6 c-3 -3 -12 -4 -19 -1 -8 3
-5 6 6 6 11 1 17 -2 13 -5z m-95 -46 c-8 -8 -17 -8 -34 0 -22 10 -21 11 12 11
26 1 31 -2 22 -11z m180 0 c-9 -9 -15 -9 -24 0 -9 9 -7 12 12 12 19 0 21 -3
12 -12z m-99 -45 c-7 -2 -21 -2 -30 0 -10 3 -4 5 12 5 17 0 24 -2 18 -5z m-83
-43 c0 -5 -11 -10 -25 -10 -14 0 -25 5 -25 10 0 6 11 10 25 10 14 0 25 -4 25
-10z m65 -40 c3 -5 -3 -10 -14 -10 -12 0 -21 5 -21 10 0 6 6 10 14 10 8 0 18
-4 21 -10z m-86 -39 c9 -6 10 -10 2 -16 -16 -9 -44 2 -36 15 8 12 16 12 34 1z"/>
<path d="M3028 3660 c2 -16 6 -30 8 -30 2 0 4 14 4 30 0 17 -4 30 -8 30 -5 0
-7 -13 -4 -30z"/>
<path d="M3034 3520 c0 -52 1 -74 3 -47 2 26 2 68 0 95 -2 26 -3 4 -3 -48z"/>
<path d="M7475 2542 c-41 -14 -75 -45 -83 -76 -6 -20 -5 -34 2 -38 19 -13 66
-9 93 9 24 16 26 16 39 -2 26 -35 13 -95 -28 -123 -29 -21 -22 -50 17 -73 23
-14 35 -28 35 -43 0 -41 -44 -62 -69 -32 -17 20 -56 28 -85 16 l-26 -9 21 -36
c33 -55 65 -75 121 -75 89 0 148 50 148 125 0 24 -6 48 -14 54 -22 18 -26 63
-9 89 34 53 10 152 -47 193 -29 21 -86 31 -115 21z"/>
<path d="M9480 2522 c-38 -21 -64 -44 -83 -75 -26 -41 -29 -54 -29 -136 -1
-76 3 -100 22 -142 49 -105 192 -143 294 -79 40 26 46 34 40 53 -15 49 -46 55
-101 21 -44 -27 -100 -10 -147 46 -21 26 -26 42 -26 89 0 69 17 96 84 132 45
23 46 24 79 6 20 -11 48 -17 68 -15 31 3 34 6 37 38 2 31 -2 38 -34 59 -24 15
-58 25 -93 28 -48 4 -64 0 -111 -25z"/>
<path d="M12874 2541 c-49 -12 -100 -48 -133 -93 -58 -79 -52 -239 13 -310
148 -162 399 -56 398 167 -1 70 -16 107 -67 163 -58 64 -136 91 -211 73z m108
-108 c33 -19 68 -87 68 -131 0 -49 -30 -106 -68 -130 -49 -32 -94 -25 -141 22
-31 32 -35 42 -39 101 l-4 65 45 45 c50 51 87 58 139 28z"/>
<path d="M13776 2475 c-14 -26 -31 -66 -37 -88 -6 -23 -17 -50 -25 -61 -8 -11
-14 -27 -14 -36 0 -28 -58 -138 -79 -150 -16 -8 -21 -20 -21 -55 0 -90 49
-128 87 -67 26 40 32 42 103 41 99 -2 118 -7 132 -37 9 -17 23 -28 39 -30 21
-2 31 4 47 32 16 27 28 36 48 36 15 0 35 6 43 14 49 41 140 47 183 10 60 -50
101 -8 59 60 -12 18 -21 46 -21 62 0 15 -8 46 -19 68 -10 23 -30 75 -46 116
-37 101 -39 105 -66 102 -26 -3 -36 -15 -45 -52 -4 -14 -14 -43 -24 -65 -35
-80 -62 -151 -72 -187 -9 -34 -14 -38 -44 -38 -30 0 -36 5 -59 50 -14 27 -25
55 -25 62 0 7 -9 30 -20 51 -11 20 -20 42 -20 48 0 16 -51 132 -65 147 -10 11
-17 5 -39 -33z m55 -262 c16 -37 17 -48 7 -55 -18 -11 -65 -10 -72 1 -6 10 29
101 39 101 3 0 15 -21 26 -47z m389 7 c0 -24 -11 -31 -38 -23 -28 7 -28 27 1
40 27 13 37 8 37 -17z"/>
<path d="M2902 2499 c-76 -5 -119 -12 -130 -22 -11 -9 -50 -16 -112 -20 -81
-5 -97 -9 -109 -26 -11 -17 -24 -21 -70 -21 -34 0 -65 -6 -76 -14 -19 -14 -19
-15 10 -26 17 -7 44 -18 60 -26 17 -8 55 -14 85 -13 30 1 62 0 70 -2 10 -3 16
5 18 24 3 25 1 27 -32 27 -38 0 -66 8 -66 19 0 13 183 -16 191 -31 27 -43 27
-43 50 -15 l21 28 139 -3 c120 -3 140 -5 145 -20 2 -9 23 -22 46 -30 79 -25
77 -77 -3 -91 -86 -15 -180 -39 -259 -64 -117 -37 -139 -34 -141 20 -1 18 -4
43 -8 57 -7 23 -9 21 -27 -28 -11 -30 -26 -55 -37 -58 -10 -3 -29 -23 -42 -44
-24 -38 -48 -51 -125 -65 -19 -4 -60 -15 -90 -25 -30 -10 -72 -21 -92 -25 -41
-6 -58 -23 -38 -35 21 -13 127 -21 268 -22 95 0 136 -4 149 -14 26 -19 254
-19 330 1 62 16 210 20 232 6 20 -13 4 -31 -27 -32 -15 -1 9 -7 52 -14 62 -9
83 -17 94 -33 12 -18 24 -22 66 -22 31 0 61 6 75 16 17 12 35 15 67 10 24 -3
46 -1 49 4 4 6 83 10 195 10 188 0 188 0 219 -26 17 -14 49 -28 71 -31 58 -8
49 -19 -22 -27 -63 -7 -145 -41 -184 -77 -11 -10 -25 -19 -31 -19 -7 0 -15 -9
-18 -20 -6 -20 -29 -27 -39 -12 -3 5 8 28 25 50 54 74 47 77 -136 76 -212 -1
-801 -23 -945 -34 -63 -5 -242 -12 -397 -16 -172 -4 -291 -11 -304 -18 -16 -8
-32 -38 -54 -104 -18 -51 -35 -95 -38 -99 -3 -3 -27 12 -54 34 -62 51 -92 63
-156 63 -36 0 -63 -7 -88 -23 -35 -21 -89 -77 -89 -91 0 -4 -10 -28 -22 -54
-17 -36 -23 -73 -27 -162 -7 -134 -1 -129 -141 -122 -109 6 -118 -2 -89 -78
11 -30 31 -65 45 -78 22 -23 30 -24 96 -19 80 5 122 -8 133 -43 4 -11 18 -34
32 -51 39 -46 24 -63 -63 -69 -77 -6 -69 -18 16 -24 30 -3 96 -9 145 -15 126
-15 341 -14 368 1 14 8 76 13 162 15 77 2 210 7 295 11 l155 9 -160 4 c-88 2
-203 4 -255 5 -134 2 -140 2 -146 19 -4 9 4 25 17 38 13 12 38 40 56 62 l31
40 290 3 c251 3 294 1 321 -12 17 -9 31 -22 31 -30 0 -7 9 -21 21 -32 12 -10
29 -35 40 -55 10 -20 32 -48 49 -63 l32 -26 189 0 c159 0 189 2 189 15 0 18
36 71 73 107 15 15 27 31 27 37 0 5 14 20 31 32 27 19 47 22 154 26 l122 4 29
-35 c16 -20 50 -59 77 -88 27 -30 47 -62 47 -75 l0 -23 239 4 c215 3 243 5
273 23 21 12 34 28 36 44 2 13 14 33 26 44 13 11 35 38 48 60 42 67 36 66 265
68 236 2 231 3 285 -77 17 -26 39 -53 50 -59 10 -7 18 -19 18 -28 0 -9 14 -31
30 -49 l31 -33 82 8 c103 10 182 10 327 1 l115 -8 -32 21 c-30 19 -31 22 -23
53 6 18 19 39 30 47 11 7 20 19 20 26 0 7 7 18 15 25 11 9 12 17 4 32 -15 28
2 44 31 28 18 -9 25 -8 41 6 14 12 45 19 112 24 55 4 106 14 126 24 51 27 62
67 73 270 10 185 7 226 -15 226 -15 0 -49 -35 -66 -67 -6 -13 -18 -23 -26 -23
-19 0 -19 40 0 66 20 27 19 42 -10 80 -15 20 -37 35 -57 39 -62 12 -68 16 -68
41 0 16 -13 36 -36 56 -20 18 -40 41 -44 53 -7 17 -22 24 -75 33 -37 6 -75 17
-84 25 -11 10 -54 16 -151 20 -86 3 -151 11 -180 21 -61 21 -343 22 -380 1
-32 -18 -113 -19 -153 -1 -18 8 -81 17 -142 20 -60 3 -161 15 -224 26 -62 11
-153 20 -201 20 -48 0 -142 3 -209 7 -96 5 -119 9 -104 17 12 8 152 11 441 10
l422 -1 31 -22 c29 -21 35 -22 93 -12 35 6 106 11 160 11 67 0 95 3 90 11 -4
6 -35 10 -78 9 -159 -4 -187 -2 -193 20 -6 23 -8 24 -33 10 -16 -8 -22 -5 -36
19 -14 24 -30 33 -82 46 -64 16 -87 29 -172 95 -25 20 -63 47 -85 61 -22 14
-58 38 -81 52 -22 15 -44 27 -48 27 -4 0 -19 9 -33 20 -14 11 -33 20 -42 20
-9 0 -32 8 -51 19 -19 10 -64 21 -100 25 -35 4 -79 14 -98 21 -35 15 -317 24
-330 11 -14 -14 23 -23 116 -29 100 -6 132 -13 132 -27 0 -25 -242 -23 -335 2
-60 16 -295 15 -295 -1 0 -5 23 -31 51 -58 74 -68 129 -123 129 -127 0 -2 -11
-1 -25 2 -14 2 -25 11 -25 18 0 8 -9 14 -20 14 -10 0 -24 9 -30 20 -6 11 -16
20 -24 20 -7 0 -22 11 -34 25 -12 14 -31 25 -43 25 -11 0 -32 9 -46 20 -14 11
-31 20 -38 20 -7 0 -34 9 -60 21 -26 11 -55 19 -65 16 -19 -5 -251 9 -307 18
-18 3 -33 10 -33 15 0 6 170 10 448 10 360 0 452 3 467 13 12 9 14 16 7 21
-35 21 -558 32 -800 15z m444 -367 c6 -4 14 -28 18 -54 6 -42 5 -47 -14 -53
-12 -4 -58 -4 -102 0 -91 8 -92 22 -4 34 74 10 78 17 15 24 -60 7 -110 34 -88
48 17 11 159 12 175 1z m-259 -64 c-3 -8 -6 -5 -6 6 -1 11 2 17 5 13 3 -3 4
-12 1 -19z m811 -85 c-10 -2 -28 -2 -40 0 -13 2 -5 4 17 4 22 1 32 -1 23 -4z
m632 -173 c0 -5 -16 -10 -35 -10 -19 0 -35 5 -35 10 0 6 16 10 35 10 19 0 35
-4 35 -10z m-116 -29 c11 -16 -23 -33 -51 -26 -27 6 -27 7 -9 21 22 16 52 18
60 5z m575 -56 c14 -8 43 -21 64 -29 37 -15 49 -39 23 -49 -7 -3 -72 -2 -143
2 -125 7 -132 8 -166 36 -20 17 -36 39 -36 49 -1 18 5 19 115 12 72 -4 126
-12 143 -21z m-770 -31 c40 -11 66 -29 111 -74 33 -33 63 -72 66 -87 4 -16 16
-44 26 -64 14 -28 19 -58 19 -133 0 -91 -13 -151 -25 -116 -3 8 -9 53 -15 99
-10 93 -21 113 -46 87 -18 -18 -60 -22 -70 -6 -3 6 3 10 14 10 14 0 27 13 41
40 33 64 27 82 -37 131 -32 24 -63 49 -69 57 -23 30 -103 22 -231 -24 -24 -9
-43 -22 -43 -30 0 -8 -13 -28 -30 -46 -16 -17 -30 -37 -30 -44 0 -8 -7 -14
-15 -14 -25 0 -18 54 11 86 14 16 36 41 49 57 14 15 32 27 42 27 9 0 26 9 38
20 39 37 118 47 194 24z m1296 -14 c4 -6 -11 -10 -37 -9 -36 1 -39 2 -18 9 36
11 48 11 55 0z m-282 -50 c11 -10 -88 -24 -103 -15 -18 11 -11 24 18 28 32 5
74 -1 85 -13z m187 7 c0 -7 -9 -18 -20 -25 -11 -7 -20 -19 -20 -27 0 -16 -15
-18 -72 -9 -40 7 -52 24 -17 24 12 0 34 11 51 25 31 26 78 34 78 12z m-1610
-12 c0 -8 -4 -15 -10 -15 -5 0 -10 7 -10 15 0 8 5 15 10 15 6 0 10 -7 10 -15z
m1225 -35 c4 -6 -30 -9 -97 -8 l-103 2 75 6 c41 4 85 7 97 8 12 1 25 -2 28 -8z
m382 -56 c-9 -9 -28 6 -21 18 4 6 10 6 17 -1 6 -6 8 -13 4 -17z m-3577 -44 c0
-5 -2 -10 -4 -10 -3 0 -8 5 -11 10 -3 6 -1 10 4 10 6 0 11 -4 11 -10z m3028
-40 c23 -17 42 -35 42 -40 0 -6 5 -10 12 -10 7 0 21 -11 33 -25 13 -17 36 -28
68 -34 26 -5 51 -11 54 -15 14 -14 -21 -34 -69 -39 -41 -5 -60 -2 -95 15 -24
12 -43 25 -43 29 0 4 -21 33 -47 64 -44 55 -45 59 -28 71 25 19 26 18 73 -16z
m-3068 -34 c0 -71 -17 -81 -22 -13 -5 55 -2 67 13 67 5 0 9 -24 9 -54z m2083
-2 c12 -16 32 -25 65 -30 26 -3 54 -10 62 -15 25 -13 -28 -27 -93 -23 -34 2
-57 -1 -57 -7 0 -6 -7 -3 -16 6 -11 10 -16 32 -16 61 2 56 11 75 26 50 6 -10
19 -29 29 -42z m-1987 1 c3 -20 11 -38 16 -41 11 -7 -9 -24 -29 -24 -13 0 -29
83 -18 99 10 18 24 3 31 -34z m2314 -26 c0 -11 -4 -17 -10 -14 -5 3 -10 13
-10 21 0 8 5 14 10 14 6 0 10 -9 10 -21z m-82 -71 c2 -12 -3 -18 -15 -18 -26
0 -47 16 -38 29 10 18 49 9 53 -11z m-263 -108 c3 -6 21 -10 40 -10 49 0 52
-17 6 -30 -22 -6 -45 -18 -50 -28 -7 -13 -13 -14 -22 -5 -8 8 -9 33 -4 90 8
76 9 77 16 35 4 -23 11 -47 14 -52z m-2197 32 c43 -6 40 -14 -8 -30 -51 -15
-57 -15 -64 3 -9 24 4 47 23 39 9 -4 31 -9 49 -12z m2392 -17 c31 -16 34 -23
24 -49 -9 -24 -33 -19 -44 8 -5 13 -18 27 -30 31 -22 7 -18 25 6 25 8 0 28 -7
44 -15z m-2130 -12 c1 -10 3 -56 6 -103 5 -84 5 -85 -28 -127 -18 -24 -35 -43
-38 -43 -3 0 -12 21 -19 48 -8 26 -16 52 -18 59 -3 7 7 13 24 15 38 4 68 63
53 103 -11 29 -5 65 11 65 5 0 9 -8 9 -17z m1615 -16 c22 -2 38 -8 35 -13 -3
-5 -14 -8 -24 -6 -10 1 -37 -6 -60 -17 -45 -21 -189 -29 -614 -33 -220 -2
-221 -2 -235 37 -3 6 -15 0 -29 -12 -23 -22 -32 -23 -201 -23 -166 0 -178 1
-209 23 -19 12 -34 27 -36 32 -1 6 38 12 95 15 119 6 1222 4 1278 -3z m355
-106 c0 -11 5 -23 10 -26 6 -3 10 -15 10 -26 0 -10 7 -19 15 -19 20 0 19 -19
0 -27 -9 -3 -24 2 -34 11 -18 17 -35 81 -25 98 9 15 24 8 24 -11z m130 9 c0
-5 -5 -10 -11 -10 -5 0 -7 5 -4 10 3 6 8 10 11 10 2 0 4 -4 4 -10z m313 -42
c5 -16 -44 -78 -61 -78 -25 0 -10 63 18 77 31 16 37 16 43 1z m-2583 -139 c0
-5 -7 -9 -15 -9 -15 0 -20 12 -9 23 8 8 24 -1 24 -14z m90 3 c0 -14 -11 -21
-26 -15 -8 3 -11 9 -8 14 7 11 34 12 34 1z"/>
<path d="M8122 2497 c-9 -11 -12 -71 -10 -223 l3 -209 36 -3 c21 -2 40 2 47
11 7 8 12 72 14 173 l3 159 54 3 c106 6 100 16 103 -176 l3 -167 39 -3 c24 -2
42 2 47 10 12 18 11 400 -1 418 -14 22 -320 29 -338 7z"/>
<path d="M9764 2495 c-3 -7 -4 -26 -2 -41 2 -24 9 -30 43 -38 22 -5 42 -11 45
-13 3 -3 7 -80 10 -171 l5 -167 40 0 c36 0 40 3 46 30 4 17 7 91 8 165 l1 136
43 19 c44 21 59 53 35 72 -7 6 -71 13 -141 16 -101 4 -130 2 -133 -8z"/>
<path d="M11703 2501 c-58 -7 -108 -43 -119 -86 -12 -47 3 -108 30 -130 32
-26 33 -51 3 -108 -13 -24 -26 -54 -30 -66 -3 -11 -9 -21 -14 -21 -10 0 -63
95 -63 113 0 6 -11 35 -25 62 -13 28 -25 56 -25 64 0 8 -8 32 -19 55 -10 23
-24 53 -30 69 -8 21 -17 27 -40 27 -28 0 -31 -4 -55 -78 -14 -42 -26 -83 -26
-90 0 -7 -15 -46 -34 -86 -35 -75 -60 -95 -95 -76 -9 4 -27 37 -40 72 -12 34
-32 81 -42 104 -10 23 -19 48 -19 56 0 9 -8 26 -18 39 -10 13 -23 36 -30 52
-6 15 -15 27 -19 27 -12 0 -61 -82 -68 -115 -4 -16 -13 -39 -20 -50 -6 -11
-15 -39 -19 -62 -8 -53 -42 -120 -68 -134 -16 -9 -18 -19 -16 -67 3 -53 5 -57
29 -60 19 -2 31 4 43 22 16 25 20 26 121 26 104 0 104 0 117 -27 19 -41 58
-42 80 -3 14 24 24 30 52 30 28 0 38 6 54 33 11 17 22 54 26 81 7 57 21 78 50
74 15 -2 24 -15 34 -48 7 -25 23 -65 35 -90 l22 -45 103 -2 103 -2 37 80 c53
112 82 103 82 -27 0 -38 3 -44 25 -50 14 -3 36 -3 50 0 l25 6 0 209 0 209 -31
11 c-33 11 -68 12 -156 2z m75 -103 c21 -21 14 -57 -12 -64 -42 -10 -71 -1
-74 24 -2 13 -1 30 2 38 7 17 67 19 84 2z m-761 -183 c17 -51 11 -65 -29 -65
-53 0 -61 11 -40 51 38 73 48 75 69 14z"/>
<path d="M13272 2499 l-22 -9 2 -212 3 -213 40 0 40 0 5 80 5 80 66 11 c44 7
78 20 102 38 42 32 47 43 47 106 0 41 -5 54 -27 75 -16 15 -38 31 -51 36 -33
13 -183 19 -210 8z m162 -85 c19 -7 21 -55 4 -72 -7 -7 -26 -12 -43 -12 -17 0
-36 5 -43 12 -16 16 -15 65 1 71 18 8 63 8 81 1z"/>
<path d="M7878 2493 c-9 -2 -22 -21 -28 -41 -6 -20 -19 -55 -30 -77 -10 -22
-30 -74 -45 -115 -15 -41 -36 -94 -47 -118 -27 -58 -22 -76 25 -80 26 -2 45 3
63 17 38 30 138 30 154 0 9 -16 19 -20 53 -17 42 3 42 3 40 41 -2 21 -9 50
-18 65 -8 15 -22 46 -30 70 -8 23 -22 61 -30 85 -8 23 -22 53 -29 67 -8 14
-19 44 -25 68 -11 41 -17 45 -53 35z m40 -279 c-2 -14 -10 -18 -28 -16 -36 6
-38 11 -11 33 27 22 45 13 39 -17z"/>
<path d="M8552 2488 c-17 -17 -15 -133 3 -194 20 -66 66 -98 149 -100 32 -1
62 -6 67 -11 4 -4 9 -33 11 -63 l3 -55 40 0 40 0 5 190 c6 237 6 240 -46 240
l-39 0 -5 -90 c-3 -49 -9 -95 -13 -101 -12 -20 -55 -22 -86 -3 -32 19 -39 42
-44 139 l-2 55 -35 3 c-19 2 -41 -3 -48 -10z"/>
<path d="M10124 2487 c-2 -7 -3 -105 -2 -217 l3 -205 29 -3 c49 -6 75 7 103
50 16 23 35 51 43 63 8 11 25 37 38 57 13 21 33 38 47 41 25 4 25 4 25 -79 0
-114 9 -134 59 -134 26 0 41 5 45 16 12 31 7 399 -6 412 -16 16 -84 15 -98 0
-15 -18 -61 -81 -90 -123 -14 -20 -39 -52 -57 -70 -40 -41 -43 -34 -43 89 0
58 -4 96 -12 104 -16 16 -77 15 -84 -1z"/>
<path d="M12363 2480 c-10 -11 -41 -32 -71 -47 -55 -28 -71 -48 -92 -120 -11
-37 -10 -48 9 -97 17 -40 33 -61 62 -80 21 -14 43 -26 48 -26 6 0 22 -11 37
-25 34 -31 68 -32 113 -1 20 13 57 35 83 50 64 36 81 71 76 157 -3 59 -8 72
-33 100 -17 17 -48 40 -70 51 -22 12 -51 29 -64 39 -31 25 -77 24 -98 -1z m-9
-146 c15 -40 0 -124 -23 -124 -10 0 -31 46 -31 70 0 50 40 90 54 54z m170 -10
c10 -25 7 -79 -5 -91 -14 -14 -49 -5 -50 13 -1 8 -1 25 -1 39 0 14 0 32 1 40
1 20 47 19 55 -1z"/>
<path d="M9130 2474 c-15 -4 -80 -131 -80 -156 0 -7 -12 -35 -25 -63 -14 -27
-25 -61 -25 -75 -1 -14 -7 -36 -15 -50 -22 -38 -18 -59 11 -66 18 -5 31 -1 48
15 18 17 35 21 96 21 49 0 79 -5 89 -14 9 -8 30 -16 46 -18 25 -2 31 1 33 19
2 12 -3 34 -11 50 -8 15 -17 45 -21 67 -7 38 -24 80 -77 191 -16 33 -29 66
-29 73 0 12 -11 14 -40 6z m39 -243 c15 -27 -6 -42 -39 -29 l-25 9 24 20 c29
23 28 23 40 0z"/>
<path d="M2297 2358 c-22 -8 -26 -13 -16 -24 6 -8 19 -14 28 -14 10 0 26 -7
37 -15 23 -17 80 -20 90 -3 4 6 2 14 -5 16 -7 2 -24 15 -38 28 -28 26 -51 29
-96 12z"/>
<path d="M2173 2301 c-10 -10 -33 -22 -51 -26 -18 -4 -36 -13 -39 -20 -2 -8
-18 -17 -34 -20 -17 -4 -35 -15 -42 -26 -6 -10 -19 -19 -28 -19 -15 0 -79 -51
-79 -63 0 -19 97 21 120 49 7 7 25 14 40 14 19 0 29 6 33 20 4 15 14 20 36 20
28 0 31 -3 31 -32 0 -34 20 -98 31 -98 3 0 11 21 16 48 6 26 12 54 14 62 2 8
-6 19 -18 25 -13 5 -23 18 -23 28 0 16 5 18 33 12 17 -4 39 -13 47 -21 15 -13
60 -9 60 6 0 4 -11 12 -25 18 -14 6 -25 18 -25 27 0 23 -74 20 -97 -4z"/>
<path d="M2142 1979 c3 -33 5 -34 48 -36 l45 -2 -37 11 c-27 7 -38 16 -38 28
0 11 -5 22 -11 25 -7 5 -9 -5 -7 -26z"/>
<path d="M5448 1943 c28 -2 76 -2 105 0 28 2 5 3 -53 3 -58 0 -81 -1 -52 -3z"/>
<path d="M1338 1504 c-12 -22 -16 -60 -8 -74 9 -13 11 -13 20 0 5 8 9 22 9 30
-1 24 -15 54 -21 44z"/>
<path d="M1330 1266 c0 -25 5 -48 10 -51 6 -4 10 13 10 44 0 28 -4 51 -10 51
-5 0 -10 -20 -10 -44z"/>
<path d="M4753 823 c20 -2 54 -2 75 0 20 2 3 4 -38 4 -41 0 -58 -2 -37 -4z"/>
<path d="M6228 783 c18 -2 45 -2 60 0 15 2 0 4 -33 4 -33 0 -45 -2 -27 -4z"/>
</g>
</svg>
