<?xml version="1.0" standalone="no"?>
<!DOCTYPE svg PUBLIC "-//W3C//DTD SVG 20010904//EN"
 "http://www.w3.org/TR/2001/REC-SVG-20010904/DTD/svg10.dtd">
<svg version="1.0" xmlns="http://www.w3.org/2000/svg"
 width="163.000000pt" height="133.000000pt" viewBox="0 0 163.000000 133.000000"
 preserveAspectRatio="xMidYMid meet">

<g transform="translate(0.000000,133.000000) scale(0.100000,-0.100000)"
fill="#000000" stroke="none">
<path d="M680 1062 l-175 -98 -3 -141 c-4 -232 30 -341 147 -465 46 -50 83
-78 136 -104 l73 -36 76 36 c129 62 219 165 267 306 19 56 22 88 23 235 l1
169 -180 98 c-99 53 -182 97 -185 97 -3 1 -84 -43 -180 -97z m353 -32 l159
-85 -4 -175 -3 -175 -42 -86 c-50 -101 -126 -179 -219 -223 -54 -26 -61 -27
-98 -15 -54 18 -149 90 -187 141 -17 24 -46 72 -63 108 -30 64 -31 67 -34 245
-3 165 -2 181 15 191 10 6 52 29 93 51 41 23 102 57 135 76 33 20 67 35 75 34
8 -1 86 -40 173 -87z"/>
<path d="M918 710 c-53 -44 -101 -80 -105 -80 -5 0 -26 20 -46 45 -34 40 -67
59 -67 37 0 -11 99 -127 109 -127 15 0 230 180 231 193 0 25 -28 10 -122 -68z"/>
</g>
</svg>
