<?xml version="1.0" standalone="no"?>
<!DOCTYPE svg PUBLIC "-//W3C//DTD SVG 20010904//EN"
 "http://www.w3.org/TR/2001/REC-SVG-20010904/DTD/svg10.dtd">
<svg version="1.0" xmlns="http://www.w3.org/2000/svg"
 width="144.000000pt" height="130.000000pt" viewBox="0 0 144.000000 130.000000"
 preserveAspectRatio="xMidYMid meet">

<g transform="translate(0.000000,130.000000) scale(0.100000,-0.100000)"
fill="#000000" stroke="none">
<path d="M622 1145 c-107 -33 -163 -122 -170 -266 -4 -83 -3 -89 21 -113 14
-14 31 -42 36 -62 13 -47 47 -96 83 -120 54 -36 28 -73 -64 -93 -97 -21 -146
-98 -136 -215 2 -22 9 -41 16 -44 9 -3 12 13 12 57 0 107 40 164 125 177 24 3
52 12 61 19 14 10 24 10 52 -2 39 -16 83 -14 90 5 2 8 -7 12 -27 12 -46 0 -82
17 -75 35 5 11 21 15 60 15 92 0 157 42 195 125 24 52 26 202 4 250 -25 52
-52 60 -195 60 -143 0 -170 -8 -195 -60 -8 -18 -15 -58 -15 -90 0 -35 -4 -54
-10 -50 -15 9 -12 135 4 188 35 116 126 169 261 152 48 -6 54 -9 52 -28 -2
-18 4 -22 38 -27 43 -6 111 -42 118 -63 2 -7 -2 -25 -10 -40 -16 -32 -14 -172
2 -172 6 0 12 36 15 80 3 45 11 90 20 102 13 20 12 25 -5 49 -11 14 -37 36
-59 48 -21 11 -48 31 -61 42 -41 40 -162 54 -243 29z m237 -211 c31 -25 31
-27 31 -119 0 -103 -13 -146 -57 -186 -42 -39 -66 -49 -123 -49 -57 0 -93 15
-132 57 -39 41 -48 74 -48 178 0 92 0 94 31 119 29 25 36 26 149 26 113 0 120
-1 149 -26z"/>
<path d="M780 521 c0 -19 51 -49 94 -55 86 -13 126 -70 126 -177 0 -44 3 -60
13 -57 6 3 13 22 15 44 6 71 -7 119 -44 162 -28 34 -44 43 -92 53 -31 7 -64
18 -73 26 -18 15 -39 17 -39 4z"/>
<path d="M810 295 c0 -10 11 -15 35 -15 24 0 35 5 35 15 0 10 -11 15 -35 15
-24 0 -35 -5 -35 -15z"/>
</g>
</svg>
