<?xml version="1.0" standalone="no"?>
<!DOCTYPE svg PUBLIC "-//W3C//DTD SVG 20010904//EN"
 "http://www.w3.org/TR/2001/REC-SVG-20010904/DTD/svg10.dtd">
<svg version="1.0" xmlns="http://www.w3.org/2000/svg"
 width="156.000000pt" height="133.000000pt" viewBox="0 0 156.000000 133.000000"
 preserveAspectRatio="xMidYMid meet">

<g transform="translate(0.000000,133.000000) scale(0.100000,-0.100000)"
fill="#000000" stroke="none">
<path d="M501 1161 l-31 -29 0 -387 c0 -246 4 -393 10 -406 24 -44 54 -49 320
-49 266 0 296 5 320 49 14 27 14 775 0 802 -24 45 -53 49 -328 49 l-260 0 -31
-29z m570 -21 c18 -10 19 -25 19 -400 0 -375 -1 -390 -19 -400 -26 -14 -516
-14 -542 0 -18 10 -19 25 -19 400 0 360 1 390 18 399 23 14 517 14 543 1z"/>
<path d="M853 958 l-73 -72 -34 33 c-24 23 -40 32 -52 27 -15 -6 -10 -15 34
-59 l52 -52 89 89 c50 49 88 93 85 98 -11 18 -32 5 -101 -64z"/>
<path d="M880 670 l-28 -30 -132 0 c-120 0 -131 -2 -128 -17 3 -16 19 -18 137
-21 129 -2 134 -4 153 -27 25 -32 79 -34 108 -5 30 30 27 83 -6 109 -37 29
-71 26 -104 -9z m90 -25 c27 -32 -23 -82 -55 -55 -15 13 -20 51 -8 63 12 12
50 7 63 -8z"/>
<path d="M590 465 c0 -13 17 -15 112 -13 78 2 113 7 116 16 3 9 -24 12 -112
12 -98 0 -116 -2 -116 -15z"/>
</g>
</svg>
