<?xml version="1.0" standalone="no"?>
<!DOCTYPE svg PUBLIC "-//W3C//DTD SVG 20010904//EN"
 "http://www.w3.org/TR/2001/REC-SVG-20010904/DTD/svg10.dtd">
<svg version="1.0" xmlns="http://www.w3.org/2000/svg"
 width="157.000000pt" height="131.000000pt" viewBox="0 0 157.000000 131.000000"
 preserveAspectRatio="xMidYMid meet">

<g transform="translate(0.000000,131.000000) scale(0.100000,-0.100000)"
fill="#000000" stroke="none">
<path d="M625 1093 c-103 -54 -142 -165 -92 -263 34 -68 85 -103 157 -108 77
-6 102 1 146 41 143 125 60 348 -128 347 -29 -1 -66 -8 -83 -17z m155 -35
c115 -58 123 -203 17 -282 -21 -16 -43 -21 -87 -21 -66 0 -99 18 -138 76 -20
28 -23 44 -20 92 3 36 12 67 24 85 24 32 98 72 134 72 14 0 46 -10 70 -22z"/>
<path d="M641 660 c-88 -19 -183 -98 -222 -185 -10 -23 -21 -67 -25 -98 l-7
-57 255 0 c241 0 257 -1 281 -20 64 -50 158 -65 223 -34 18 9 49 33 68 54 75
83 71 202 -10 283 -72 72 -199 77 -275 11 -14 -12 -24 -10 -75 15 -66 34 -144
45 -213 31z m173 -51 c31 -11 58 -24 61 -29 3 -5 -2 -35 -11 -66 -13 -45 -14
-64 -5 -99 6 -24 11 -49 11 -54 0 -8 -72 -11 -220 -11 l-220 0 0 23 c0 47 33
118 76 166 77 86 195 113 308 70z m297 10 c139 -47 162 -224 40 -306 -73 -50
-165 -34 -223 38 -72 89 -33 226 77 264 50 17 63 18 106 4z"/>
<path d="M1085 479 l-48 -40 -22 21 c-48 46 -61 13 -14 -38 34 -36 21 -40 112
33 36 29 46 49 29 59 -5 3 -30 -13 -57 -35z"/>
</g>
</svg>
